name E:\3-PhD\Data\MocapData\ElaboratedData\009\pre\dynamicElaborations\Run_baseline1\Run_baseline1.mot
datacolumns 37
datarows 7
range 5.2965 5.2995
endheader

time	    ground_force1_vx	    ground_force1_vy	    ground_force1_vz	    ground_force1_px	    ground_force1_py	    ground_force1_pz	    ground_force2_vx	    ground_force2_vy	    ground_force2_vz	    ground_force2_px	    ground_force2_py	    ground_force2_pz	    ground_force3_vx	    ground_force3_vy	    ground_force3_vz	    ground_force3_px	    ground_force3_py	    ground_force3_pz	    ground_force4_vx	    ground_force4_vy	    ground_force4_vz	    ground_force4_px	    ground_force4_py	    ground_force4_pz	    ground_torque1_x	    ground_torque1_y	    ground_torque1_z	    ground_torque2_x	    ground_torque2_y	    ground_torque2_z	    ground_torque3_x	    ground_torque3_y	    ground_torque3_z	    ground_torque4_x	    ground_torque4_y	    ground_torque4_z	
5.2965	          0.00000000	          0.00000000	          0.00000000	          0.00000000	          0.00000000	          0.00000000	          0.00000000	          0.00000000	          0.00000000	          0.00000000	          0.00000000	          0.00000000	       -225.45830387	       1756.79909587	        -29.79644894	         -0.45251568	          0.00000000	          0.31958687	          0.00000000	          0.00000000	          0.00000000	          0.00000000	          0.00000000	          0.00000000	          0.00000000	          0.00000000	          0.00000000	          0.00000000	          0.00000000	          0.00000000	          0.00000000	          2.64125052	         -0.00000000	          0.00000000	          0.00000000	          0.00000000	
5.297	          0.00000000	          0.00000000	          0.00000000	          0.00000000	          0.00000000	          0.00000000	          0.00000000	          0.00000000	          0.00000000	          0.00000000	          0.00000000	          0.00000000	       -222.98476432	       1760.37558929	        -31.25045659	         -0.45186860	          0.00000000	          0.31961448	          0.00000000	          0.00000000	          0.00000000	          0.00000000	          0.00000000	          0.00000000	          0.00000000	          0.00000000	          0.00000000	          0.00000000	          0.00000000	          0.00000000	          0.00000000	          2.47831275	         -0.00000000	          0.00000000	          0.00000000	          0.00000000	
5.2975	          0.00000000	          0.00000000	          0.00000000	          0.00000000	          0.00000000	          0.00000000	          0.00000000	          0.00000000	          0.00000000	          0.00000000	          0.00000000	          0.00000000	       -220.40727073	       1763.86518970	        -32.66598337	         -0.45122765	          0.00000000	          0.31964080	          0.00000000	          0.00000000	          0.00000000	          0.00000000	          0.00000000	          0.00000000	          0.00000000	          0.00000000	          0.00000000	          0.00000000	          0.00000000	          0.00000000	          0.00000000	          2.31620585	         -0.00000000	          0.00000000	          0.00000000	          0.00000000	
5.298	          0.00000000	          0.00000000	          0.00000000	          0.00000000	          0.00000000	          0.00000000	          0.00000000	          0.00000000	          0.00000000	          0.00000000	          0.00000000	          0.00000000	       -217.72667108	       1767.26959317	        -34.04159400	         -0.45059293	          0.00000000	          0.31966578	          0.00000000	          0.00000000	          0.00000000	          0.00000000	          0.00000000	          0.00000000	          0.00000000	          0.00000000	          0.00000000	          0.00000000	          0.00000000	          0.00000000	          0.00000000	          2.15523664	         -0.00000000	          0.00000000	          0.00000000	          0.00000000	
5.2985	          0.00000000	          0.00000000	          0.00000000	          0.00000000	          0.00000000	          0.00000000	          0.00000000	          0.00000000	          0.00000000	          0.00000000	          0.00000000	          0.00000000	       -214.94378857	       1770.59024774	        -35.37598273	         -0.44996458	          0.00000000	          0.31968937	          0.00000000	          0.00000000	          0.00000000	          0.00000000	          0.00000000	          0.00000000	          0.00000000	          0.00000000	          0.00000000	          0.00000000	          0.00000000	          0.00000000	          0.00000000	          1.99570026	         -0.00000000	          0.00000000	          0.00000000	          0.00000000	
5.299	          0.00000000	          0.00000000	          0.00000000	          0.00000000	          0.00000000	          0.00000000	          0.00000000	          0.00000000	          0.00000000	          0.00000000	          0.00000000	          0.00000000	       -212.05941888	       1773.82835940	        -36.66796615	         -0.44934270	          0.00000000	          0.31971152	          0.00000000	          0.00000000	          0.00000000	          0.00000000	          0.00000000	          0.00000000	          0.00000000	          0.00000000	          0.00000000	          0.00000000	          0.00000000	          0.00000000	          0.00000000	          1.83788108	         -0.00000000	          0.00000000	          0.00000000	          0.00000000	
5.2995	          0.00000000	          0.00000000	          0.00000000	          0.00000000	          0.00000000	          0.00000000	          0.00000000	          0.00000000	          0.00000000	          0.00000000	          0.00000000	          0.00000000	       -209.07432938	       1776.98489889	        -37.91647550	         -0.44872740	          0.00000000	          0.31973219	          0.00000000	          0.00000000	          0.00000000	          0.00000000	          0.00000000	          0.00000000	          0.00000000	          0.00000000	          0.00000000	          0.00000000	          0.00000000	          0.00000000	          0.00000000	          1.68205311	         -0.00000000	          0.00000000	          0.00000000	          0.00000000	
